<?xml version="1.0" standalone="no"?>
<!DOCTYPE svg PUBLIC "-//W3C//DTD SVG 20010904//EN"
 "http://www.w3.org/TR/2001/REC-SVG-20010904/DTD/svg10.dtd">
<svg version="1.0" xmlns="http://www.w3.org/2000/svg"
 width="1024.000000pt" height="1024.000000pt" viewBox="0 0 1024.000000 1024.000000"
 preserveAspectRatio="xMidYMid meet">
<metadata>
Created by potrace 1.14, written by Peter Selinger 2001-2017
</metadata>
<g transform="translate(0.000000,1024.000000) scale(0.100000,-0.100000)"
fill="#000000" stroke="none">
<path d="M10177 10233 c-2 -5 -3 -2240 -3 -4969 1 -4264 3 -4963 15 -4978 8
-9 23 -22 33 -27 17 -9 18 146 18 4986 l0 4995 -29 0 c-17 0 -32 -3 -34 -7z"/>
<path d="M4874 9341 c-2 -2 -41 -6 -86 -8 -79 -3 -128 -7 -193 -17 -16 -2 -48
-7 -70 -10 -41 -6 -68 -11 -120 -22 -16 -4 -41 -8 -55 -9 -48 -6 -104 -17
-128 -26 -14 -5 -27 -7 -29 -5 -3 3 -17 0 -32 -6 -14 -6 -37 -12 -51 -13 -79
-10 -452 -132 -578 -191 -29 -13 -57 -24 -63 -24 -5 0 -87 -38 -182 -84 -200
-97 -384 -204 -580 -339 -56 -38 -174 -126 -191 -142 -6 -6 -27 -22 -46 -35
-19 -14 -42 -32 -51 -40 -9 -8 -45 -40 -79 -70 -82 -73 -323 -314 -385 -386
-27 -32 -57 -65 -66 -74 -9 -10 -36 -44 -60 -76 -24 -33 -46 -61 -49 -64 -3
-3 -27 -34 -52 -70 -26 -36 -52 -70 -57 -76 -5 -6 -33 -49 -61 -95 -29 -46
-57 -85 -61 -87 -5 -2 -9 -8 -9 -12 0 -5 -27 -54 -60 -109 -60 -99 -159 -295
-213 -421 -28 -63 -42 -98 -86 -207 -26 -64 -91 -260 -97 -290 -2 -12 -9 -35
-15 -50 -10 -25 -18 -54 -35 -133 -2 -14 -7 -33 -10 -42 -3 -9 -7 -27 -10 -40
-11 -48 -14 -64 -20 -88 -3 -14 -7 -38 -9 -55 -2 -16 -6 -43 -10 -60 -3 -16
-8 -41 -9 -55 -2 -14 -7 -41 -11 -60 -8 -37 -12 -64 -21 -145 -21 -196 -21
-823 0 -967 7 -46 16 -105 21 -138 2 -14 6 -34 8 -45 5 -23 16 -85 22 -130 5
-38 9 -56 29 -130 8 -33 18 -78 22 -100 3 -22 13 -60 21 -84 8 -24 17 -54 19
-66 4 -23 27 -94 68 -210 43 -120 53 -147 95 -244 23 -52 41 -100 41 -107 0
-7 3 -14 8 -16 4 -1 23 -37 41 -78 42 -92 140 -272 198 -363 24 -37 43 -69 43
-72 0 -6 92 -137 107 -153 7 -7 13 -17 13 -21 0 -4 11 -21 25 -37 14 -16 25
-32 25 -36 0 -4 6 -13 12 -20 7 -7 33 -40 58 -73 25 -33 53 -66 63 -73 9 -7
17 -19 17 -26 0 -7 14 -22 30 -34 17 -13 30 -27 30 -32 0 -6 28 -38 62 -73 35
-34 80 -80 100 -102 57 -61 255 -246 323 -300 20 -16 45 -37 54 -45 9 -8 36
-27 59 -43 23 -15 42 -32 42 -37 0 -6 6 -10 14 -10 7 0 26 -12 43 -27 16 -16
41 -35 55 -43 15 -8 50 -31 80 -51 90 -60 210 -135 265 -165 29 -16 53 -32 53
-36 0 -5 6 -8 13 -8 7 0 55 -23 107 -50 52 -28 97 -50 100 -50 3 0 24 -8 46
-19 342 -162 757 -285 1174 -346 19 -3 46 -8 60 -10 14 -3 54 -7 90 -10 36 -2
90 -7 120 -11 74 -8 525 -8 625 0 44 4 107 9 140 11 33 3 71 7 85 10 14 2 41
7 60 10 76 11 169 28 240 43 41 9 84 17 95 18 90 12 495 135 602 185 24 10 46
19 49 19 6 0 42 15 142 61 35 16 65 29 67 29 11 0 228 110 281 143 34 20 66
37 71 37 6 0 18 9 28 20 10 11 27 23 39 26 11 4 35 17 52 30 17 13 34 24 37
24 4 0 27 15 51 32 24 18 54 41 67 50 117 83 243 177 282 210 14 13 44 39 67
58 22 19 118 112 213 206 153 153 195 198 277 294 12 14 29 34 38 45 10 11 31
38 47 60 17 22 34 44 38 50 163 210 364 554 479 820 19 44 47 108 61 141 15
34 27 65 27 69 0 4 6 21 14 38 36 79 127 369 141 447 2 14 7 36 10 50 3 14 8
34 10 45 9 38 15 65 21 88 9 37 15 71 19 102 3 17 6 41 8 55 3 14 8 45 12 70
4 25 9 59 11 75 2 17 7 48 10 70 11 88 15 192 15 470 1 341 -8 478 -36 615 -5
23 -9 51 -20 135 -8 60 -16 101 -25 125 -8 23 -12 41 -25 110 -11 56 -14 71
-31 127 -29 102 -110 346 -139 418 -14 39 -33 88 -42 110 -30 81 -236 490
-254 505 -3 3 -14 20 -23 37 -15 31 -57 97 -74 118 -4 6 -30 44 -57 85 -27 41
-53 77 -57 78 -4 2 -8 10 -8 18 0 8 -4 14 -8 14 -4 0 -16 14 -26 31 -10 18
-26 39 -35 49 -21 22 -41 48 -70 89 -13 18 -36 46 -50 61 -14 15 -44 49 -66
74 -81 95 -419 426 -433 426 -5 0 -17 10 -28 23 -11 12 -33 31 -48 42 -16 11
-33 25 -40 30 -6 6 -27 21 -46 34 -19 14 -39 30 -43 38 -4 7 -12 13 -17 13 -5
0 -43 25 -85 55 -70 50 -220 146 -343 218 -127 75 -403 203 -577 268 -188 70
-212 79 -355 121 -94 27 -100 28 -130 33 -14 2 -36 6 -50 10 -23 6 -40 10
-120 29 -14 3 -43 8 -65 11 -42 5 -80 12 -80 15 0 1 -13 3 -30 5 -16 2 -43 6
-60 9 -16 4 -48 8 -70 11 -22 3 -58 7 -80 10 -105 14 -710 27 -721 16z"/>
</g>
</svg>
